<?xml version="1.0" encoding="utf-8"?>
<!-- Generator: Adobe Illustrator 24.3.0, SVG Export Plug-In . SVG Version: 6.00 Build 0)  -->
<svg version="1.1" id="Layer_1" xmlns="http://www.w3.org/2000/svg" xmlns:xlink="http://www.w3.org/1999/xlink" x="0px" y="0px"
	 viewBox="0 0 612 792" style="enable-background:new 0 0 612 792;" xml:space="preserve">
<g>
	<path d="M106.6,111.7c-9.7-12.3-19.2-24.5-29.3-37.3c6.6,0,12.6-0.1,18.5,0.1c1,0,2.2,1.4,3,2.4c6.3,7.9,12.5,15.9,18.9,24.1
		c1.6-1.2,3.1-2.4,4.6-3.6c15.6-11.8,33.1-19.2,52.3-22.4c2.9-0.5,6-0.6,8.9-0.6c113.5,0,227.1,0,340.6,0c1.1,0,2.2,0,3.8,0
		c0,1.3,0,2.4,0,3.5c0,177.6,0,355.2-0.1,532.7c0,8.9-2.6,17.4-5.8,25.5c-16.4,40.4-46.5,64-89.2,71.8c-5.2,1-10.7,1.2-16,1.2
		c-48.9,0.1-97.9-0.1-146.8,0.1c-29.1,0.2-56.5-6.5-82.2-19.7c-52.8-27.3-86.5-70.5-103.9-126.9c-5.3-17.2-7.8-34.8-7.8-53
		c0.3-106.8,0-213.5,0.2-320.3c0-26.3,8.4-50,24.5-70.8C102.8,116.2,104.6,114,106.6,111.7z M313.3,505.3c1.4,0,2.6,0,3.8,0
		c29,0,58,0,87-0.1c6.7,0,13.4-0.2,20-1.2c33.3-5,57.9-22.2,72.1-53.1c5.8-12.6,8.5-26,9.1-39.9c1.1-25.4-4.7-48.9-19.7-69.8
		c-2-2.7-4.2-5.2-6.4-7.9c-0.9,0.7-1.5,1.1-2,1.6c-19.3,15.6-41.1,23.9-66.1,23.7c-31.4-0.2-62.7-0.1-94.1-0.1c-1.2,0-2.4,0-3.7,0
		C313.3,407.6,313.3,456.2,313.3,505.3z M297.6,520.8c-1-0.1-1.8-0.2-2.6-0.2c-36.9,0-73.9,0-110.8,0.1c-1.4,0-3.3,1.1-4.2,2.3
		c-15.2,18.9-30.2,37.9-45.3,56.8c-5.8,7.2-11.5,14.5-17.2,21.7c18.8,34.5,52.6,64.5,89.3,79.8c29.3,12.2,59.8,14.1,90.9,12.6
		C297.6,636,297.6,578.5,297.6,520.8z M313.3,289.1c10.6,0,20.9,0.1,31.2-0.1c1.1,0,2.4-1,3.1-1.9c33.5-42,66.9-84,100.4-126.1
		c10.6-13.3,21.2-26.6,31.7-39.9c-0.2-0.4-0.3-0.7-0.5-0.9c-18.1-19.6-39.8-31.4-67.1-31.4c-31.7,0.1-63.4,0-95,0
		c-1.2,0-2.4,0-3.8,0C313.3,155.7,313.3,222.2,313.3,289.1z M291.6,357.6c-1.8,0-2.7,0-3.6,0c-45.9,0-91.8,0-137.7,0
		c-2.1,0-3.7,0.6-5.1,2.2c-37.3,40.2-54.9,87.9-54.8,142.4c0,1,0.2,1.9,0.3,3c1.4,0,2.6,0,3.7,0c25.5,0,51,0,76.4,0.1
		c2.6,0,4.1-0.9,5.6-2.8c32.6-41.1,65.3-82.2,97.9-123.2C280,372.3,285.5,365.3,291.6,357.6z M513.6,450.5c-0.2-0.1-0.3-0.1-0.5-0.2
		c-0.4,1-0.8,2-1.2,3c-10.8,26.3-28.9,45.7-55,57.2c-17.1,7.6-35.1,10.4-53.9,10.2c-29.2-0.4-58.4-0.1-87.6-0.1
		c-0.7,0-1.4,0.2-2,0.3c0,21.8,0,43.4,0,65.1c66.8,0,133.5,0,200.2,0C513.6,540.7,513.6,495.6,513.6,450.5z M513.3,601.7
		c-66,0-132.1,0-198.1,0c0.8,46.8,41.8,94.2,102.4,92.3C476.4,692.2,513.3,644.5,513.3,601.7z M127.3,113.1c0.7,1,1.3,1.8,1.8,2.5
		c16.3,20.7,32.7,41.4,48.9,62.3c1.7,2.2,3.5,3,6.2,3c36.5-0.1,73-0.1,109.6-0.1c1.2,0,2.4,0,3.7,0c0-30.9,0-61.5,0-92.3
		c-1.4,0-2.6,0-3.8,0c-32.3,0.1-64.5,0.4-96.8,0.4c-10.7,0-21.1,1-31.4,3.9C151.3,96.7,138.8,103.5,127.3,113.1z M489.4,133.6
		c-41.2,51.8-82.2,103.4-123.7,155.5c11.4,0,22.1-0.1,32.8,0c8.3,0.1,16.7,0.1,25,0.8c15.6,1.3,30.3,6.1,43.8,14.2
		c4,2.4,7.8,5.2,11.7,7.8C522,265.7,524.2,183.1,489.4,133.6z M245.9,289.1c-0.9-1.2-1.4-2-2-2.8c-23.2-29.5-46.4-59-69.5-88.5
		c-1.3-1.7-2.7-2.4-4.9-2.4c-24.7,0.1-49.3,0-74,0.1c-1.1,0-2.2,0.1-3.3,0.2c0.2,2.4,0.3,4.5,0.6,6.5c6.2,47.8,47.4,85.5,95.7,87
		c18.6,0.6,37.1,0.2,55.7,0.2C244.6,289.3,245,289.2,245.9,289.1z M297.5,505.2c0-43.3,0-86.4,0-130.2
		c-34.7,43.7-69,86.7-103.6,130.2C228.8,505.2,263,505.2,297.5,505.2z M192.2,195.6c0.6,0.8,0.9,1.3,1.3,1.8
		c23.4,29.8,46.9,59.6,70.3,89.5c1.2,1.6,2.5,2.3,4.6,2.3c8.4-0.2,16.7-0.1,25.1-0.1c1.3,0,2.6,0,4,0c0-31.3,0-62.3,0-93.5
		C262.5,195.6,227.7,195.6,192.2,195.6z M196.2,305c-47.2-1-82.5-21.4-106.4-62c0,33.3,0,66.2,0,99.2c0.8,0,1.4,0.1,2,0.1
		c15.6,0,31.2,0.1,46.8-0.1c1.4,0,3.1-0.9,4.2-1.9c12.5-11.4,26.1-21.2,41-29.2C187.8,309.1,191.8,307.2,196.2,305z M467.7,323
		c-0.9-0.7-1.3-1.1-1.8-1.4c-15.8-11.3-33.5-16.6-52.7-16.8c-19.1-0.2-38.2-0.1-57.3,0c-1.4,0-3.1,0.9-4,2
		c-6.2,7.5-12.1,15.1-18.2,22.7c-3.6,4.6-7.3,9.1-11.2,14.1c1.3,0.1,2.1,0.1,2.9,0.1c28.6,0,57.2,0.1,85.7-0.1
		c9.3-0.1,18.5-1.2,27.4-4.3C449.2,335.7,458.8,330.4,467.7,323z M287.9,342.2c-9.3-11.8-18.2-22.9-26.9-34.3
		c-1.7-2.2-3.4-2.8-6-2.5c-32.6,3.5-61.9,15.2-88,35c-0.6,0.5-1.1,1-2.1,1.9C206.1,342.2,246.7,342.2,287.9,342.2z M109.6,586.6
		c17.5-22,34.8-43.7,52.3-65.8c-23.9,0-47.1,0-70.4,0C93.9,543.8,99.8,565.4,109.6,586.6z M160.8,180.6c-15-19-29.6-37.7-44.5-56.6
		c-14,16.6-22,35.2-23.9,56.6C115.3,180.6,137.7,180.6,160.8,180.6z M89.8,357.8c0,20.2,0,40.1,0,60.1c9-21.8,20.9-41.7,36.4-60.1
		C113.7,357.8,101.9,357.8,89.8,357.8z M313.3,651c0,14.8,0,28.8,0,42.9c14,0,27.8,0,42.4,0C337.6,683.1,323.8,669.3,313.3,651z
		 M513.6,289.4c-7.3,11-14.9,22.4-22.6,34.1c9.5,10.3,16.9,22.9,22.6,36.6C513.6,336.3,513.6,312.5,513.6,289.4z M505.5,88.7
		c-13.5,0-26.4,0-38.9,0c7.6,6.4,15.4,12.9,23.3,19.5C495,102,500.1,95.5,505.5,88.7z M499.8,120.6c4.7,7.8,9.1,15.4,13.7,23.2
		c0-13.4,0-26.5,0-40.4C508.6,109.5,504.2,115.1,499.8,120.6z M313.4,304.8c0,8.5,0,16.7,0,25.6c6.9-8.7,13.5-17,20.3-25.6
		C326.6,304.8,320.1,304.8,313.4,304.8z M297.6,304.8c-6.6,0-12.8,0-19.6,0c6.6,8.4,12.9,16.3,19.6,24.9
		C297.6,320.9,297.6,313,297.6,304.8z"/>
</g>
</svg>
